<svg xmlns="http://www.w3.org/2000/svg" version="1.1" xmlns:xlink="http://www.w3.org/1999/xlink" width="512" height="512" x="0" y="0" viewBox="0 0 102.05 102.05" style="enable-background:new 0 0 512 512" xml:space="preserve" class=""><g><g fill="none"><path d="m36 66 1.58-.22c.78-.1 1.56-.18 2.35-.26l1.51-.16 2.56-.2 1.29-.08c1.32-.07 2.64-.12 4-.14V53h-17c.05 1 .13 2 .23 2.94 0 .22 0 .45.07.67.12 1 .26 1.93.43 2.9l.06.31c.16.89.36 1.77.57 2.65l.15.65c.24.94.51 1.87.8 2.8l.07.18zM53.29 69v17.5h.08c.24-.11.47-.23.7-.36l.16-.09q.39-.24.78-.51l.16-.12c.23-.17.47-.36.7-.55l.12-.1c.26-.22.53-.46.79-.71l.17-.16c.25-.24.5-.49.74-.76h.05c.27-.28.53-.57.79-.87 0-.07.11-.13.16-.19.26-.31.52-.62.77-1 .25-.31.49-.64.74-1l.14-.19c.25-.35.5-.69.74-1a.76.76 0 0 1 .08-.11l.66-1a1.63 1.63 0 0 0 .11-.17c.23-.37.47-.74.69-1.12l.1-.16c.21-.35.42-.71.62-1.08l.06-.1c.22-.39.43-.77.63-1.16l.09-.18c.41-.79.8-1.57 1.15-2.34l.08-.17c.18-.39.35-.78.51-1.16A103.29 103.29 0 0 0 53.29 69zM47.31 69h-1c-1.32.06-2.64.14-3.94.24l-.8.08c-1.05.1-2.1.2-3.13.33l-1.21.16-1.15.19c.17.38.34.77.52 1.16l.09.2c.18.39.37.78.56 1.18 0 0 0 .09.08.14.18.37.37.75.57 1.12l.1.2c.21.39.42.78.64 1.17l.13.23q.33.59.69 1.17v.07c.22.37.45.73.68 1.09l.14.22c.24.37.48.73.73 1.08l.14.21.73 1 .06.08c.26.34.52.68.78 1l.17.21c.26.32.52.63.79.93l.12.14.74.79.14.13c.26.27.53.53.8.77l.18.16c.27.24.55.48.82.69.27.2.53.39.79.56l.17.11c.27.17.53.32.8.46l.15.07a7 7 0 0 0 .77.32h.06V69h-1.91zM53.29 53v12a104.71 104.71 0 0 1 14 1.21A50.06 50.06 0 0 0 69.67 53zM41.13 85.55c-.28-.29-.55-.58-.83-.89s-.37-.44-.56-.66-.5-.59-.75-.91-.38-.5-.57-.76-.48-.62-.71-1-.38-.56-.56-.84-.45-.66-.68-1l-.54-.9c-.21-.35-.43-.7-.63-1.07s-.35-.64-.53-1-.4-.74-.59-1.12-.33-.67-.5-1-.37-.76-.55-1.16-.31-.71-.46-1.07-.34-.79-.5-1.2c-.05-.11-.1-.22-.14-.33l-1.6.31-.66.14c-1.07.24-2.11.49-3.13.76l-.64.25c-.83.22-1.65.46-2.45.71l-.73.23-.44.16c.36.46.73.92 1.11 1.37l.3.34c.37.42.75.84 1.14 1.24a3.45 3.45 0 0 0 .26.28c.45.46.92.91 1.39 1.35l.36.31q.62.55 1.26 1.08l.29.24c.5.4 1 .78 1.54 1.15l.39.28c.45.31.91.61 1.38.91l.31.19c.54.34 1.09.66 1.66 1l.42.22c.49.26 1 .51 1.49.74l.32.1c.59.26 1.18.51 1.77.74l.45.18c.53.19 1 .38 1.59.56l.31.1c.5.16 1 .3 1.52.43zM61.5 17c.28.31.56.63.84 1l.45.55c.26.32.51.65.76 1l.5.67q.35.48.69 1l.52.78.62 1c.18.29.36.58.53.88l.57 1 .53 1 .51 1c.17.34.35.69.51 1L69 29c.16.36.32.72.47 1.09 0 .1.09.2.14.31l1.62-.31.58-.12c1.05-.23 2.07-.47 3.07-.73l.72-.24c.82-.22 1.63-.45 2.42-.7l.66-.2.32-.1c-.1-.13-.21-.25-.32-.38-.4-.48-.82-.95-1.25-1.4-.19-.21-.38-.41-.58-.61-.44-.45-.9-.89-1.37-1.32l-.48-.44c-.63-.56-1.28-1.1-2-1.61-.12-.09-.26-.18-.38-.28-.56-.41-1.12-.8-1.69-1.18l-.68-.44c-.51-.32-1-.63-1.56-.92l-.61-.42c-.7-.37-1.41-.72-2.12-1.05l-.14-.07c-.77-.34-1.55-.65-2.34-.94l-.71-.24c-.57-.2-1.15-.38-1.73-.55l-.42-.12.48.52c.13.19.27.33.4.45zM79.26 73l-.76-.24c-.79-.24-1.6-.48-2.42-.71l-.72-.19c-1-.27-2.06-.53-3.13-.76l-.69-.1-1.6-.32a3.27 3.27 0 0 1-.14.33c-.16.4-.32.79-.49 1.18l-.47 1.08c-.18.39-.37.77-.55 1.16s-.33.68-.5 1-.4.76-.61 1.13-.34.64-.52 1-.44.73-.66 1.1l-.53.87c-.23.36-.48.71-.72 1.07s-.35.53-.53.78-.53.72-.8 1.07-.33.45-.5.66c-.35.45-.71.87-1.08 1.29l-.36.42c-.41.45-.82.89-1.24 1.3.57-.15 1.13-.3 1.68-.48l.43-.14c.52-.17 1.05-.35 1.56-.55l.37-.14c.6-.23 1.19-.48 1.78-.75l.4-.19c.49-.23 1-.48 1.46-.73l.37-.19c.57-.31 1.12-.63 1.67-1l.37-.24c.46-.29.92-.59 1.36-.9l.36-.24c.52-.38 1-.76 1.54-1.17l.33-.26c.43-.35.84-.71 1.26-1.07l.32-.3c.48-.43 1-.89 1.41-1.35l.27-.29c.39-.4.78-.82 1.15-1.25l.28-.32c.39-.45.76-.91 1.12-1.38zM49.29 15.08c-2 .73-4.19 2.63-6.21 5.08-.57.69-1.12 1.42-1.66 2.17v.08c-.27.37-.53.74-.78 1.12v.08c-.25.38-.5.76-.74 1.14-.24.38-.47.76-.7 1.15a1.74 1.74 0 0 1-.11.18l-.65 1.15c-.21.37-.4.74-.59 1.11l-.11.2-.74 1.19-.09.19c-.17.35-.33.7-.48 1v.07a101.93 101.93 0 0 0 12.87 1zM32.49 30c.15-.36.31-.71.47-1.07s.31-.71.48-1.06.33-.69.5-1 .34-.69.52-1 .35-.64.53-1 .37-.67.56-1l.54-.91.6-.95c.18-.29.37-.57.56-.85l.62-.89c.2-.27.39-.54.59-.8s.42-.56.64-.83l.6-.74.66-.76c.2-.23.41-.45.61-.67s.23-.26.34-.37l-.39.1c-.58.18-1.16.36-1.74.56-.22.08-.46.15-.68.24-.78.29-1.56.6-2.32.94l-.31.15c-.66.3-1.3.62-1.94 1l-.7.4c-.52.29-1 .59-1.52.9l-.7.45c-.57.38-1.13.77-1.68 1.18-.12.1-.25.18-.37.27-.67.51-1.31 1-1.94 1.6l-.51.47c-.45.42-.91.85-1.34 1.3l-.58.6c-.43.46-.85.93-1.25 1.41L23 28l.33.11.66.2q1.17.36 2.4.69l.71.18c1 .26 2 .5 3 .72l.62.13c.51.11 1 .2 1.57.3.11-.09.15-.19.2-.33zM28.27 49a53.7 53.7 0 0 1 2.66-14.83h-.05L30 34l-1-.21c-.93-.2-1.84-.42-2.73-.65l-.56-.14a86.39 86.39 0 0 1-3.09-.89l-.81-.26-1.28-.41A35.9 35.9 0 0 0 14.81 49zM21.24 69.34l.85-.28c1-.32 2.09-.64 3.17-.93l.48-.12c1-.25 1.91-.48 2.88-.7l1-.22c.33-.07.65-.15 1-.21h.05c-.21-.66-.39-1.32-.57-2-.06-.21-.11-.41-.16-.61-.13-.49-.25-1-.36-1.48-.05-.21-.09-.42-.14-.64-.12-.57-.24-1.15-.34-1.73 0-.1-.05-.21-.06-.31-.12-.69-.23-1.37-.32-2.06 0-.18 0-.36-.07-.54-.06-.52-.12-1-.17-1.55l-.06-.65c0-.54-.08-1.07-.11-1.61v-.48a1.09 1.09 0 0 1 0-.18h-13.5A36.16 36.16 0 0 0 20 69.76zM57.17 18.34c-.28-.27-.57-.53-.84-.77l-.11-.1c-.31-.27-.62-.51-.92-.74-.08-.07-.16-.12-.24-.18s-.45-.32-.66-.47l-.25-.16c-.26-.16-.51-.3-.75-.43l-.09-.05V32h2.62q1.91-.09 3.78-.24l.6-.05c1.06-.1 2.11-.21 3.16-.33l1.08-.14c.35 0 .68-.1 1-.15-.26-.6-.52-1.19-.8-1.76l-.24-.48c-.22-.45-.44-.88-.67-1.3l-.27-.55c-.27-.48-.53-.95-.8-1.4l-.13-.22c-.31-.51-.63-1-1-1.49l-.27-.39c-.24-.35-.48-.7-.72-1l-.3-.4c-.28-.38-.57-.74-.85-1.09a1.83 1.83 0 0 0-.13-.16c-.32-.39-.65-.77-1-1.12l-.27-.29c-.24-.26-.49-.51-.73-.75zM49.29 49V36a106.41 106.41 0 0 1-14.35-1.19A49.61 49.61 0 0 0 32.29 49zM80.22 31.83l-.81.26c-1 .31-2 .61-3.12.89l-.56.14c-.9.22-1.81.44-2.74.64L72 34l-.89.19a2.17 2.17 0 0 1 .07.24q.31.94.57 1.89c.07.23.13.45.19.68.13.5.26 1 .38 1.51.06.24.12.47.17.71.12.56.24 1.12.35 1.68l.09.49c.13.71.25 1.43.35 2.15 0 .18 0 .37.07.55.07.54.13 1.09.19 1.63l.06.75c0 .51.08 1 .11 1.51V49h13.53a36 36 0 0 0-5.72-17.61zM69.66 48.63v-.74c0-.44-.06-.87-.09-1.3 0-.25 0-.5-.07-.74 0-.47-.11-.94-.17-1.4 0-.2-.05-.4-.08-.61-.1-.66-.21-1.33-.33-2v-.16q-.18-.91-.39-1.83l-.15-.61c-.11-.46-.23-.92-.35-1.38-.06-.22-.13-.45-.2-.68-.12-.45-.26-.89-.4-1.34l-.21-.64-.22-.33-1.15.13-1.48.2c-.74.09-1.49.17-2.23.24l-1.41.14c-.83.08-1.66.13-2.5.19l-1.2.08c-1.24.07-2.49.12-3.74.14V49h16.39c-.01-.11-.01-.24-.02-.37zM71.29 66.82l1 .22 1 .22c1 .22 2 .45 2.91.7l.47.12c1.1.29 2.16.61 3.2.94l.83.27c.44.15.88.28 1.3.43A36.05 36.05 0 0 0 87.24 53H73.68a54 54 0 0 1-2.39 13.82z" fill="" opacity="1"></path></g><path fill="#ffffff" d="M91.29 51a40 40 0 0 0-5.93-21h.09L84 27.85l-.88-1.25-.54-.71-.58-.52c-.37-.45-.74-.89-1.12-1.32-.23-.25-.47-.49-.71-.73s-.63-.69-1-1-.65-.61-1-.92-.51-.48-.78-.71-.83-.69-1.25-1l-.6-.49c-.51-.39-1-.77-1.57-1.14l-.36-.26c-.6-.41-1.22-.8-1.85-1.18l-.16-.1a40.21 40.21 0 0 0-17.9-5.62h-.23c-.58 0-1.16-.05-1.74-.06H48.41c-.42 0-.84.08-1.26.12l-1.15.1c-.4 0-.8.13-1.21.19l-1.17.18c-.38.07-.75.17-1.12.25s-.82.16-1.22.26-.72.2-1.08.3-.82.22-1.23.35-.69.24-1 .36-.81.27-1.21.42l-1 .41c-.4.16-.8.32-1.2.5s-.64.31-1 .46-.79.37-1.18.58-.62.34-.93.51-.78.42-1.15.65-.63.4-.95.6-.71.44-1.06.68-.63.46-.94.68-.67.47-1 .72l-.89.74c-.32.26-.65.51-1 .78l-.89.82c-.29.27-.59.53-.87.81s-.65.67-1 1-.47.48-.7.73c-.39.44-.76.89-1.14 1.34-.14.17-.29.33-.43.51s-.36.48-.54.71L18 27.86 16.6 30h.09a40.21 40.21 0 0 0-.51 41.18h-.08l1.38 2.08.89 1.33h.05a40.22 40.22 0 0 0 65.21 0h.05l.88-1.33L86 71.22h-.09A40.1 40.1 0 0 0 91.29 51zm-13 23.88c-.37.43-.76.85-1.15 1.25l-.27.29c-.46.46-.93.92-1.41 1.35l-.32.3c-.42.36-.83.72-1.26 1.07l-.33.26c-.5.41-1 .79-1.54 1.17l-.36.24c-.44.31-.9.61-1.36.9l-.37.24c-.55.33-1.1.65-1.67 1l-.37.19c-.48.25-1 .5-1.46.73L66 84c-.59.27-1.18.52-1.78.75l-.37.14c-.51.2-1 .38-1.56.55l-.43.14c-.55.18-1.11.33-1.68.48.42-.41.83-.85 1.24-1.3l.36-.42a27.28 27.28 0 0 0 1.58-1.95c.16-.22.54-.7.8-1.07s.36-.52.53-.78.49-.71.72-1.07l.53-.87c.22-.37.45-.73.66-1.1s.35-.63.52-1 .41-.75.61-1.13.33-.68.5-1 .37-.77.55-1.16l.47-1.08c.17-.39.33-.78.49-1.18a3.27 3.27 0 0 0 .14-.33l1.6.32.69.14c1.07.23 2.11.49 3.13.76l.72.19c.82.23 1.63.47 2.42.71l.76.24.45.16c-.36.47-.73.93-1.12 1.38zM39.76 85.5c-.54-.18-1.06-.37-1.59-.56l-.45-.18c-.59-.23-1.18-.48-1.77-.74l-.31-.16c-.5-.23-1-.48-1.49-.74l-.42-.22c-.57-.3-1.12-.62-1.66-1l-.31-.19c-.47-.3-.93-.6-1.38-.91l-.38-.24c-.53-.37-1-.75-1.54-1.15l-.29-.24q-.64-.53-1.26-1.08l-.36-.31c-.47-.44-.94-.89-1.39-1.35a3.45 3.45 0 0 1-.26-.28c-.39-.4-.77-.82-1.14-1.24l-.3-.34c-.38-.45-.75-.91-1.11-1.37l.44-.16.73-.23c.8-.25 1.62-.49 2.45-.71l.68-.19c1-.27 2.06-.52 3.13-.76l.66-.14L32 70.7c0 .11.09.22.14.33.16.41.33.8.5 1.2s.3.72.46 1.07.37.78.55 1.16.33.69.5 1 .39.75.59 1.12.35.65.53 1 .42.72.63 1.07l.54.9c.23.35.45.68.68 1s.37.57.56.84.47.64.71 1 .37.52.57.76.5.61.75.91.37.45.56.66.55.6.83.89l.46.48c-.51-.13-1-.27-1.52-.43zm-9.6-55.59c-1-.22-2.05-.46-3-.72l-.75-.19q-1.23-.33-2.4-.69l-.66-.2L23 28l.32-.37c.4-.48.82-.95 1.25-1.41l.58-.6c.43-.45.89-.88 1.34-1.3l.51-.47c.63-.55 1.27-1.09 1.94-1.6.12-.09.25-.17.37-.27.55-.41 1.11-.8 1.68-1.18l.7-.45c.5-.31 1-.61 1.52-.9l.7-.4c.64-.34 1.28-.66 1.94-1l.31-.15c.76-.34 1.54-.65 2.32-.94.22-.09.46-.16.68-.24.58-.2 1.16-.38 1.74-.56l.39-.1c-.11.11-.22.25-.34.37s-.41.44-.61.67l-.66.76-.6.74c-.22.27-.43.55-.64.83s-.39.53-.59.8l-.62.89c-.19.28-.38.56-.56.85l-.6.95-.54.91c-.19.33-.38.66-.56 1s-.36.64-.53 1-.35.69-.52 1-.34.68-.5 1-.33.7-.48 1.06-.32.71-.47 1.07c-.05.11-.09.21-.14.31-.52-.1-1.06-.19-1.57-.3zM61 16.19c.58.17 1.16.35 1.73.55l.71.24c.79.29 1.57.6 2.34.94L66 18c.71.33 1.42.68 2.12 1.05l.67.38c.53.29 1 .6 1.56.92l.68.44c.57.38 1.13.77 1.69 1.18.12.1.26.19.38.28.67.51 1.32 1.05 2 1.61l.49.45c.47.43.93.87 1.37 1.32.2.2.39.4.58.61.43.45.85.92 1.25 1.4.11.13.22.25.32.38l-.34.11-.66.2c-.79.25-1.6.48-2.42.7l-.71.18c-1 .26-2 .5-3.07.73l-.58.12-1.62.31c-.05-.11-.09-.21-.14-.31-.15-.37-.31-.73-.47-1.09l-.48-1.05c-.16-.35-.34-.7-.51-1l-.51-1-.53-1-.57-1c-.17-.3-.35-.59-.53-.88l-.62-1-.52-.78q-.34-.51-.69-1l-.5-.67c-.25-.34-.5-.67-.76-1l-.54-.59c-.28-.34-.56-.66-.84-1-.13-.16-.27-.3-.4-.45l-.48-.52zm4.3 55.12c-.35.77-.74 1.55-1.15 2.34l-.09.18c-.2.39-.41.77-.63 1.16l-.06.1c-.2.37-.41.73-.62 1.08l-.1.16c-.22.38-.46.75-.69 1.12a1.63 1.63 0 0 1-.11.17l-.66 1a.76.76 0 0 0-.08.11c-.24.36-.49.7-.74 1l-.14.19c-.25.34-.49.67-.74 1-.25.33-.51.64-.77 1 0 .06-.11.12-.16.19-.26.3-.52.59-.79.87h-.05c-.24.27-.49.52-.74.76l-.17.16c-.26.25-.53.49-.79.71l-.12.1c-.23.19-.47.38-.7.55l-.16.12q-.39.27-.78.51l-.16.09c-.23.13-.46.25-.7.36h-.08V69a103.29 103.29 0 0 1 12.6 1c-.16.38-.33.77-.51 1.16zM49.23 86.68a7 7 0 0 1-.77-.32l-.15-.07c-.27-.14-.53-.29-.8-.46l-.17-.11c-.26-.17-.52-.36-.79-.56-.27-.21-.55-.45-.82-.69l-.18-.16c-.27-.24-.54-.5-.8-.77l-.14-.13-.74-.79-.12-.14c-.27-.3-.53-.61-.79-.93l-.17-.21c-.26-.32-.52-.66-.78-1l-.06-.08-.73-1L41 79c-.25-.35-.49-.71-.73-1.08l-.14-.22c-.23-.36-.46-.72-.68-1.09v-.07q-.36-.58-.69-1.17l-.13-.23c-.22-.39-.43-.78-.64-1.17l-.08-.15c-.2-.37-.39-.75-.57-1.12 0 0 0-.1-.08-.14-.19-.4-.38-.79-.56-1.18l-.09-.2c-.18-.39-.35-.78-.52-1.16l1.14-.17 1.21-.16c1-.13 2.08-.23 3.13-.33l.8-.08c1.3-.1 2.62-.18 3.94-.24h3v17.67zM33.8 63.18l-.15-.65c-.21-.88-.41-1.76-.57-2.65l-.08-.31c-.17-1-.31-1.93-.43-2.9 0-.22-.05-.45-.07-.67-.1-1-.18-2-.23-2.94h17v11.87c-1.33 0-2.65.07-4 .14l-1.27.09-2.63.19-1.51.16c-.79.08-1.57.16-2.35.26L36 66l-1.29.17-.11-.17c-.29-.95-.6-1.88-.8-2.82zm33.5 3a104.71 104.71 0 0 0-14-1.21V53h16.37a50.06 50.06 0 0 1-2.37 13.17zM36.46 31c.15-.34.31-.69.48-1l.09-.19.55-1.1.11-.2c.19-.37.38-.74.59-1.11l.72-1.27a1.74 1.74 0 0 0 .11-.18c.23-.39.46-.77.7-1.15.24-.38.49-.76.74-1.14v-.08c.25-.38.51-.75.78-1.12v-.08c.54-.75 1.09-1.48 1.66-2.17 2-2.45 4.18-4.35 6.21-5.08V32a101.93 101.93 0 0 1-12.87-1zm22-11.29c.32.35.65.73 1 1.12a1.83 1.83 0 0 1 .13.16c.28.35.57.71.85 1.09l.3.4c.24.33.48.68.72 1l.27.39c.32.48.64 1 1 1.49l.13.22c.27.45.53.92.8 1.4l.27.51c.23.42.45.85.67 1.3l.24.48c.28.57.54 1.16.8 1.76-.34.05-.67.11-1 .15l-1.08.14c-1.05.12-2.1.23-3.16.33l-.6.05q-1.87.15-3.78.24H53.4V15.43l.09.05c.24.13.49.27.75.43l.25.16c.21.15.44.3.66.47s.16.11.24.18c.3.23.61.47.92.74l.11.1c.27.24.56.5.84.77l.28.29c.24.24.49.49.73.75zM53.29 36c1.25 0 2.5-.07 3.74-.14l1.2-.08c.84-.06 1.67-.11 2.5-.19l1.41-.14c.74-.07 1.49-.15 2.23-.24l1.48-.2 1.15-.14.12.34.21.64c.14.45.28.89.4 1.34.07.23.14.46.2.68.12.46.24.92.35 1.38l.15.61q.21.91.39 1.83v.16c.12.66.23 1.33.33 2 0 .21.05.41.08.61.06.46.12.93.17 1.4 0 .24 0 .49.07.74 0 .43.07.86.09 1.3v1.13H53.29zm-18.35-1.2A106.41 106.41 0 0 0 49.29 36v13h-17a49.61 49.61 0 0 1 2.65-14.16zm47.13 34.96c-.42-.15-.86-.28-1.3-.43l-.83-.27c-1-.33-2.1-.65-3.2-.94l-.47-.12c-1-.25-1.92-.48-2.91-.7l-1-.22-1-.22A54 54 0 0 0 73.68 53h13.56a36.05 36.05 0 0 1-5.17 16.76zM73.69 49v-1.02c0-.5-.07-1-.11-1.51l-.06-.75c-.06-.54-.12-1.09-.19-1.63 0-.18 0-.37-.07-.55-.1-.72-.22-1.44-.35-2.15l-.09-.49c-.11-.56-.23-1.12-.35-1.68 0-.24-.11-.47-.17-.71-.12-.51-.25-1-.38-1.51-.06-.23-.12-.45-.19-.68q-.25-.95-.57-1.89a2.17 2.17 0 0 0-.07-.24L72 34l1-.22c.93-.2 1.84-.42 2.74-.64l.56-.14c1.07-.28 2.1-.58 3.12-.89l.81-.26 1.3-.42A36 36 0 0 1 87.24 49zM20.53 31.41l1.28.41.81.26c1 .31 2 .61 3.09.89l.57.13c.89.23 1.8.45 2.73.65L30 34l.88.19h.05A53.7 53.7 0 0 0 28.27 49H14.81a35.9 35.9 0 0 1 5.72-17.59zM28.29 53a1.09 1.09 0 0 0 0 .18v.48c0 .54.07 1.07.11 1.61l.06.65c.05.52.11 1 .17 1.55 0 .18 0 .36.07.54.09.69.2 1.37.32 2.06 0 .1 0 .21.06.31.1.58.22 1.16.34 1.73.05.22.09.43.14.64.11.49.23 1 .36 1.48a61.687 61.687 0 0 0 .73 2.61h-.05c-.33.06-.65.14-1 .21l-1 .22c-1 .22-1.93.45-2.88.7l-.48.12c-1.08.29-2.13.61-3.17.93l-.85.28-1.22.46A36.16 36.16 0 0 1 14.81 53z" opacity="1" data-original="#161616"></path></g></svg>